<svg width="24" height="29" viewBox="0 0 24 29" fill="none" xmlns="http://www.w3.org/2000/svg">
<path d="M12.0682 4.9412C12.5511 4.9412 13.6985 5.24659 13.6985 5.24659C16.8068 5.95889 18.9947 8.82198 18.9947 12.0545V20.7554L19.6302 21.3938L20.1612 21.9272H3.83877L4.36977 21.3938L5.0053 20.7554V12.0545C5.0053 8.82205 7.19318 5.95889 10.3015 5.24659C10.3015 5.24659 11.5317 4.9412 11.9318 4.9412H12.0682ZM12 0C10.7999 0 9.88234 0.921682 9.88234 2.12727V3.11993C5.85859 4.04195 2.82348 7.72909 2.82348 12.0545V19.8545L0 22.6909V24.1091H24V22.6909L21.1765 19.8545V12.0545C21.1765 7.72909 18.1413 4.04195 14.1177 3.11993V2.12727C14.1177 0.921682 13.2001 0 12 0ZM14.8235 25.5273H9.17645C9.17645 27.0873 10.4469 28.3636 12 28.3636C13.5531 28.3636 14.8235 27.0873 14.8235 25.5273Z" fill="#AAAAAA"/>
</svg>
