<svg width="18" height="28" viewBox="0 0 18 28" fill="none" xmlns="http://www.w3.org/2000/svg">
<path fill-rule="evenodd" clip-rule="evenodd" d="M9 20.57C9.34093 20.57 9.6679 20.4346 9.90897 20.1935C10.15 19.9524 10.2855 19.6255 10.2855 19.2845V4.39093L15.8028 9.9108C15.9223 10.0303 16.0642 10.1251 16.2203 10.1898C16.3765 10.2545 16.5439 10.2878 16.7129 10.2878C16.8819 10.2878 17.0493 10.2545 17.2054 10.1898C17.3616 10.1251 17.5035 10.0303 17.623 9.9108C17.7425 9.79128 17.8373 9.64939 17.902 9.49323C17.9667 9.33707 18 9.1697 18 9.00068C18 8.83165 17.9667 8.66428 17.902 8.50812C17.8373 8.35196 17.7425 8.21007 17.623 8.09055L9.91012 0.377659C9.79071 0.257946 9.64886 0.162967 9.49268 0.0981622C9.33651 0.0333573 9.16909 0 9 0C8.83092 0 8.66349 0.0333573 8.50732 0.0981622C8.35114 0.162967 8.20929 0.257946 8.08988 0.377659L0.376985 8.09055C0.135606 8.33193 0 8.65931 0 9.00068C0 9.34204 0.135606 9.66942 0.376985 9.9108C0.618364 10.1522 0.945745 10.2878 1.28711 10.2878C1.62847 10.2878 1.95585 10.1522 2.19723 9.9108L7.71452 4.39093V19.2845C7.71452 19.6255 7.84995 19.9524 8.09103 20.1935C8.3321 20.4346 8.65907 20.57 9 20.57Z" fill="#AAAAAA"/>
<line y1="26.9236" x2="17.9968" y2="26.9236" stroke="black"/>
</svg>
